<?xml version="1.0" standalone="no"?><!DOCTYPE svg PUBLIC "-//W3C//DTD SVG 1.1//EN" "http://www.w3.org/Graphics/SVG/1.1/DTD/svg11.dtd"><svg t="1567932754394" class="icon" viewBox="0 0 1129 1024" version="1.1" xmlns="http://www.w3.org/2000/svg" p-id="2252" xmlns:xlink="http://www.w3.org/1999/xlink" width="141.125" height="128"><defs><style type="text/css"></style></defs><path d="M543.77931 941.02069C307.2 941.02069 112.993103 748.57931 112.993103 512s194.206897-429.02069 430.786207-429.02069S972.8 275.42069 972.8 512 780.358621 941.02069 543.77931 941.02069z m0-822.731035C326.62069 118.289655 148.303448 294.841379 148.303448 512s176.551724 393.710345 393.710345 393.710345S935.724138 729.158621 935.724138 512 760.937931 118.289655 543.77931 118.289655z" fill="#ffffff" p-id="2253"></path><path d="M141.241379 406.068966h805.075862v35.310344H141.241379zM141.241379 602.041379h805.075862v35.310345H141.241379z" fill="#ffffff" p-id="2254"></path><path d="M531.42069 933.958621c-160.662069-241.875862-151.834483-459.034483-116.524138-598.510345 38.841379-150.068966 114.758621-241.875862 118.289655-247.172414l26.482759 22.951724c-12.358621 14.124138-291.310345 360.165517 0 803.310345l-28.248276 19.42069z" fill="#ffffff" p-id="2255"></path><path d="M568.496552 935.724138l-26.482759-22.951724c12.358621-14.124138 291.310345-360.165517-1.765517-803.310345l30.013793-19.42069c160.662069 241.875862 151.834483 459.034483 116.524138 598.510345-40.606897 150.068966-116.524138 241.875862-118.289655 247.172414z" fill="#ffffff" p-id="2256"></path></svg>